{"title":"New Blood S01 720p BluRay HEVC 2CH x265","uid":15432249,"size":3421096765,"categoryP":"video","categoryS":"hd___tv_shows","magnet":"?xt=urn:btih:bf7bb707908c9eddef802cf6ee062d5334e93bc9&amp;dn=New+Blood+S01+720p+BluRay+HEVC+2CH+x265&amp;tr=udp%3A%2F%2Ftracker.leechers-paradise.org%3A6969&amp;tr=udp%3A%2F%2Fzer0day.ch%3A1337&amp;tr=udp%3A%2F%2Fopen.demonii.com%3A1337&amp;tr=udp%3A%2F%2Ftracker.coppersurfer.tk%3A6969&amp;tr=udp%3A%2F%2Fexodus.desync.com%3A6969","seeders":2,"leechers":4,"uploader":"nayhtut","files":15,"time":1469734961,"description":"[Screenshots]\r\n\r\n \nhttps://s31.postimg.org/4tnxzuljv/New_Blood_S01_E07_720p_Blu_Ray_HEVC_2_CH_x265_006.jpg \nhttps://s31.postimg.org/dpyq3sc63/New_Blood_S01_E05_720p_Blu_Ray_HEVC_2_CH_x265_004.jpg \nhttps://s31.postimg.org/6b9ebeqaj/New_Blood_S01_E05_720p_Blu_Ray_HEVC_2_CH_x265_001.jpg \nhttps://s31.postimg.org/ieepyz1cr/New_Blood_S01_E04_720p_Blu_Ray_HEVC_2_CH_x265_007.jpg \nhttps://s31.postimg.org/4ywan9i8r/New_Blood_S01_E02_720p_Blu_Ray_HEVC_2_CH_x265_002.jpg \nhttps://s31.postimg.org/7hhzny3yz/New_Blood_S01_E02_720p_Blu_Ray_HEVC_2_CH_x265_005.jpg \nhttps://s31.postimg.org/fo9zfiu1n/New_Blood_S01_E01_720p_Blu_Ray_HEVC_2_CH_x265_008.jpg \nhttps://s31.postimg.org/jlx94xguz/New_Blood_S01_E01_720p_Blu_Ray_HEVC_2_CH_x265_007.jpg\r\n\r\n\r\n\r\nSource:  New Blood S01 720p BluRay x264-SHORTBREHD (Size: 16.69 GB)\r\n\r\nContains:  New Blood Season One - Episode 01 to 07 + Season One Featurette\r\n\r\n\r\nFormat                                   : Matroska\r\nFormat version                           : Version 4 / Version 2\r\nFile size                                : 3.18 GiB\r\nDuration                                 : Various\r\nOverall bit rate                         : 1 100 Kbps\r\nWriting application                      : Lavf57.25.100\r\nWriting library                          : Lavf57.25.100\r\n\r\nVideo\r\n\r\nID                                       : 1\r\nFormat                                   : V_MPEGH/ISO/HEVC\r\nCodec ID                                 : V_MPEGH/ISO/HEVC\r\nDuration                                 : 55mn 1s\r\nBit rate                                 : 886 Kbps\r\nWidth                                    : 1 280 pixels\r\nHeight                                   : 720 pixels\r\nDisplay aspect ratio                     : 16:9\r\nFrame rate                               : 25.000 fps\r\nBits/(Pixel*Frame)                       : 0.038\r\nStream size                              : 349 MiB (81%)\r\nWriting library                          : Lavc57.48.101 libx265\r\nDefault                                  : Yes\r\nForced                                   : No\r\nDURATION                                 : 00:55:01.611000000\r\nNUMBER_OF_FRAMES                         : 82539\r\nNUMBER_OF_BYTES                          : 1720044266\r\n_STATISTICS_WRITING_APP                  : no_variable_data\r\n_STATISTICS_WRITING_DATE_UTC             : 1970-01-01 00:00:00\r\n_STATISTICS_TAGS                         : BPS DURATION NUMBER_OF_FRAMES NUMBER_OF_BYTES\r\n\r\nAudio\r\n\r\nID                                       : 2\r\nFormat                                   : AC-3\r\nFormat/Info                              : Audio Coding 3\r\nMode extension                           : CM (complete main)\r\nFormat settings, Endianness              : Big\r\nCodec ID                                 : A_AC3\r\nDuration                                 : 55mn 1s\r\nBit rate mode                            : Constant\r\nBit rate                                 : 192 Kbps\r\nChannel(s)                               : 2 channels\r\nChannel positions                        : Front: L R\r\nSampling rate                            : 48.0 KHz\r\nBit depth                                : 16 bits\r\nCompression mode                         : Lossy\r\nStream size                              : 75.6 MiB (17%)\r\nWriting library                          : Lavc57.24.102 ac3\r\nLanguage                                 : English\r\nDefault                                  : Yes\r\nForced                                   : No\r\nDURATION                                 : 00:55:01.695000000\r\nNUMBER_OF_FRAMES                         : 309525\r\nNUMBER_OF_BYTES                          : 622764300\r\n_STATISTICS_WRITING_APP                  : no_variable_data\r\n_STATISTICS_WRITING_DATE_UTC             : 1970-01-01 00:00:00\r\n_STATISTICS_TAGS                         : BPS DURATION NUMBER_OF_FRAMES NUMBER_OF_BYTES\r\n\r\nMenu\r\n\r\n00:00:00.000                             : :00:00:00.000\r\n00:09:45.000                             : :00:09:45.000\r\n00:19:49.040                             : :00:19:49.040\r\n00:30:07.120                             : :00:30:07.120\r\n00:41:24.560                             : :00:41:24.560\r\n\r\nIMDb: http://www.imdb.com/title/tt4513868\r\n\r\n\r\n__--__--__--__--__--__--__--__--__--__--__--__--__--\r\n\r\n\r\nAfter adding torrent with maget link,\r\n\r\nplease add this  following trackers list to the torrent for better seeds.\r\n\r\n\r\nudp://tracker.coppersurfer.tk:6969/announce\r\n\r\nudp://tracker.opentrackr.org:1337/announce\r\n \nhttp://tracker.baravik.org:6970/announce\r\n \nhttp://tracker2.wasabii.com.tw:6969/announce\r\n\r\nudp://9.rarbg.me:2710/announce\r\n\r\n\r\n__--__--__--__--__--__--__--__--__--__--__--__--__--\r\n\r\n\r\nEnjoy!","torrent":{"xt":"urn:btih:bf7bb707908c9eddef802cf6ee062d5334e93bc9","amp;dn":"New+Blood+S01+720p+BluRay+HEVC+2CH+x265","amp;tr":["udp%3A%2F%2Ftracker.leechers-paradise.org%3A6969","udp%3A%2F%2Fzer0day.ch%3A1337","udp%3A%2F%2Fopen.demonii.com%3A1337","udp%3A%2F%2Ftracker.coppersurfer.tk%3A6969","udp%3A%2F%2Fexodus.desync.com%3A6969"],"infoHash":"bf7bb707908c9eddef802cf6ee062d5334e93bc9","infoHashBuffer":{"type":"Buffer","data":[191,123,183,7,144,140,158,221,239,128,44,246,238,6,45,83,52,233,59,201]},"announce":[],"urlList":[]}}